<svg xmlns="http://www.w3.org/2000/svg" width="1200" height="800" viewBox="0 0 1200 800" role="img" aria-labelledby="title desc">
<title id="title">San Antonio: Between the Violent Strata of Colonialism, War, and Urban Renewal</title><desc id="desc">Abstract geological poster with layered contours and a structural fault.</desc>
<defs>
  <linearGradient id="bg" x1="0" y1="0" x2="1" y2="1"><stop offset="0" stop-color="#1c232d"/><stop offset="1" stop-color="#6d7889"/></linearGradient>
  <filter id="grain"><feTurbulence type="fractalNoise" baseFrequency=".75" numOctaves="3" seed="23"/><feColorMatrix values="1 0 0 0 0 0 1 0 0 0 0 0 1 0 0 0 0 0 .12 0"/></filter>
  <clipPath id="left"><path d="M0 0H387L317 800H0Z"/></clipPath>
</defs>
<rect width="1200" height="800" fill="url(#bg)"/>
<circle cx="29" cy="-113" r="89" fill="#bfa56a" opacity=".18"/>
<path d="M-40 70 C 230 43, 430 94, 720 64 S 1030 114, 1260 60" fill="none" stroke="#bfa56a" stroke-opacity="0.15" stroke-width="2"/><path d="M-40 152 C 230 113, 430 188, 720 146 S 1030 184, 1260 142" fill="none" stroke="#ded8c7" stroke-opacity="0.22999999999999998" stroke-width="3"/><path d="M-40 234 C 230 189, 430 276, 720 228 S 1030 260, 1260 224" fill="none" stroke="#bfa56a" stroke-opacity="0.31" stroke-width="4"/><path d="M-40 316 C 230 284, 430 345, 720 310 S 1030 355, 1260 306" fill="none" stroke="#ded8c7" stroke-opacity="0.15" stroke-width="2"/><path d="M-40 398 C 230 373, 430 420, 720 392 S 1030 444, 1260 388" fill="none" stroke="#bfa56a" stroke-opacity="0.22999999999999998" stroke-width="3"/><path d="M-40 480 C 230 458, 430 499, 720 474 S 1030 529, 1260 470" fill="none" stroke="#ded8c7" stroke-opacity="0.31" stroke-width="4"/><path d="M-40 562 C 230 526, 430 595, 720 556 S 1030 597, 1260 552" fill="none" stroke="#bfa56a" stroke-opacity="0.15" stroke-width="2"/><path d="M-40 644 C 230 617, 430 668, 720 638 S 1030 688, 1260 634" fill="none" stroke="#ded8c7" stroke-opacity="0.22999999999999998" stroke-width="3"/><path d="M-40 726 C 230 703, 430 746, 720 720 S 1030 774, 1260 716" fill="none" stroke="#bfa56a" stroke-opacity="0.31" stroke-width="4"/>
<g clip-path="url(#left)" transform="translate(-18 8)"><path d="M-40 70 C 230 43, 430 94, 720 64 S 1030 114, 1260 60" fill="none" stroke="#bfa56a" stroke-opacity="0.15" stroke-width="2"/><path d="M-40 152 C 230 113, 430 188, 720 146 S 1030 184, 1260 142" fill="none" stroke="#ded8c7" stroke-opacity="0.22999999999999998" stroke-width="3"/><path d="M-40 234 C 230 189, 430 276, 720 228 S 1030 260, 1260 224" fill="none" stroke="#bfa56a" stroke-opacity="0.31" stroke-width="4"/><path d="M-40 316 C 230 284, 430 345, 720 310 S 1030 355, 1260 306" fill="none" stroke="#ded8c7" stroke-opacity="0.15" stroke-width="2"/><path d="M-40 398 C 230 373, 430 420, 720 392 S 1030 444, 1260 388" fill="none" stroke="#bfa56a" stroke-opacity="0.22999999999999998" stroke-width="3"/><path d="M-40 480 C 230 458, 430 499, 720 474 S 1030 529, 1260 470" fill="none" stroke="#ded8c7" stroke-opacity="0.31" stroke-width="4"/><path d="M-40 562 C 230 526, 430 595, 720 556 S 1030 597, 1260 552" fill="none" stroke="#bfa56a" stroke-opacity="0.15" stroke-width="2"/><path d="M-40 644 C 230 617, 430 668, 720 638 S 1030 688, 1260 634" fill="none" stroke="#ded8c7" stroke-opacity="0.22999999999999998" stroke-width="3"/><path d="M-40 726 C 230 703, 430 746, 720 720 S 1030 774, 1260 716" fill="none" stroke="#bfa56a" stroke-opacity="0.31" stroke-width="4"/></g>
<path d="M387 -20 L317 820" stroke="#bfa56a" stroke-width="7" stroke-opacity=".72"/>
<path d="M405 -20 L335 820" stroke="#1c232d" stroke-width="2" stroke-opacity=".85"/>
<rect x="54" y="48" width="7" height="126" fill="#bfa56a"/>
<text x="78" y="80" font-size="20" letter-spacing="5" font-family="Georgia, serif" fill="#ded8c7" opacity=".88">JUNTAO YANG · POSTS</text>
<text x="78" y="116" font-size="15" letter-spacing="3" font-family="Georgia, serif" fill="#ded8c7" opacity=".62">2026-03-20 · SANANTONIO</text>
<text x="78" y="520" font-size="42" font-family="Georgia, serif" fill="#ded8c7">San Antonio: Between the</text><text x="78" y="582" font-size="42" font-family="Georgia, serif" fill="#ded8c7">Violent Strata of</text><text x="78" y="644" font-size="42" font-family="Georgia, serif" fill="#ded8c7">Colonialism, War, and Urban</text><text x="78" y="706" font-size="42" font-family="Georgia, serif" fill="#ded8c7">Renewal</text>
<rect width="1200" height="800" filter="url(#grain)" opacity=".45"/>
</svg>

